<?xml version="1.0" encoding="UTF-8" standalone="no"?>
<!DOCTYPE svg PUBLIC "-//W3C//DTD SVG 1.1//EN"
 "http://www.w3.org/Graphics/SVG/1.1/DTD/svg11.dtd">
<!-- Generated by graphviz version 2.43.0 (0)
 -->
<!-- Title: include/libc/stdio.h Pages: 1 -->
<svg width="2615pt" height="148pt"
 viewBox="0.00 0.00 2614.50 148.00" xmlns="http://www.w3.org/2000/svg" xmlns:xlink="http://www.w3.org/1999/xlink">
<g id="graph0" class="graph" transform="scale(1 1) rotate(0) translate(4 144)">
<title>include/libc/stdio.h</title>
<!-- Node1 -->
<g id="Node000001" class="node">
<title>Node1</title>
<g id="a_Node000001"><a xlink:title=" ">
<polygon fill="#999999" stroke="#666666" points="1685.5,-140 1577.5,-140 1577.5,-121 1685.5,-121 1685.5,-140"/>
<text text-anchor="middle" x="1631.5" y="-128" font-family="Helvetica,sans-Serif" font-size="10.00">include/libc/stdio.h</text>
</a>
</g>
</g>
<!-- Node2 -->
<g id="Node000002" class="node">
<title>Node2</title>
<g id="a_Node000002"><a xlink:href="load_8h.html" target="_top" xlink:title=" ">
<polygon fill="white" stroke="#666666" points="650.5,-79.5 556.5,-79.5 556.5,-60.5 650.5,-60.5 650.5,-79.5"/>
<text text-anchor="middle" x="603.5" y="-67.5" font-family="Helvetica,sans-Serif" font-size="10.00">src/audio/load.h</text>
</a>
</g>
</g>
<!-- Node1&#45;&gt;Node2 -->
<g id="edge1_Node000001_Node000002" class="edge">
<title>Node1&#45;&gt;Node2</title>
<g id="a_edge1_Node000001_Node000002"><a xlink:title=" ">
<path fill="none" stroke="#63b8ff" d="M1567.17,-125.84C1376.47,-114.99 817.14,-83.16 650.73,-73.69"/>
<polygon fill="#63b8ff" stroke="#63b8ff" points="1567.13,-129.34 1577.32,-126.42 1567.53,-122.35 1567.13,-129.34"/>
</a>
</g>
</g>
<!-- Node9 -->
<g id="Node000009" class="node">
<title>Node9</title>
<g id="a_Node000009"><a xlink:href="seqplayer_8c.html" target="_top" xlink:title=" ">
<polygon fill="white" stroke="#666666" points="1123,-19 1004,-19 1004,0 1123,0 1123,-19"/>
<text text-anchor="middle" x="1063.5" y="-7" font-family="Helvetica,sans-Serif" font-size="10.00">src/audio/seqplayer.c</text>
</a>
</g>
</g>
<!-- Node1&#45;&gt;Node9 -->
<g id="edge12_Node000001_Node000009" class="edge">
<title>Node1&#45;&gt;Node9</title>
<g id="a_edge12_Node000001_Node000009"><a xlink:title=" ">
<path fill="none" stroke="#63b8ff" d="M1567.05,-128C1391.01,-123.61 913.54,-109.46 890.5,-85 881.36,-75.29 882.33,-65.54 890.5,-55 904.47,-36.99 959.44,-24.99 1003.71,-18.04"/>
<polygon fill="#63b8ff" stroke="#63b8ff" points="1567.12,-131.51 1577.21,-128.26 1567.3,-124.51 1567.12,-131.51"/>
</a>
</g>
</g>
<!-- Node12 -->
<g id="Node000012" class="node">
<title>Node12</title>
<g id="a_Node000012"><a xlink:href="mixer_8c.html" target="_top" xlink:title=" ">
<polygon fill="white" stroke="#666666" points="998,-79.5 899,-79.5 899,-60.5 998,-60.5 998,-79.5"/>
<text text-anchor="middle" x="948.5" y="-67.5" font-family="Helvetica,sans-Serif" font-size="10.00">src/audio/mixer.c</text>
</a>
</g>
</g>
<!-- Node1&#45;&gt;Node12 -->
<g id="edge11_Node000001_Node000012" class="edge">
<title>Node1&#45;&gt;Node12</title>
<g id="a_edge11_Node000001_Node000012"><a xlink:title=" ">
<path fill="none" stroke="#63b8ff" d="M1567.08,-128.34C1453.45,-125.52 1210.24,-116.07 1007.5,-85 998.55,-83.63 988.96,-81.6 980.16,-79.51"/>
<polygon fill="#63b8ff" stroke="#63b8ff" points="1567.26,-131.84 1577.34,-128.58 1567.42,-124.84 1567.26,-131.84"/>
</a>
</g>
</g>
<!-- Node13 -->
<g id="Node000013" class="node">
<title>Node13</title>
<g id="a_Node000013"><a xlink:href="code__80005FD0_8c.html" target="_top" xlink:title=" ">
<polygon fill="white" stroke="#666666" points="1136.5,-79.5 1016.5,-79.5 1016.5,-60.5 1136.5,-60.5 1136.5,-79.5"/>
<text text-anchor="middle" x="1076.5" y="-67.5" font-family="Helvetica,sans-Serif" font-size="10.00">src/code_80005FD0.c</text>
</a>
</g>
</g>
<!-- Node1&#45;&gt;Node13 -->
<g id="edge13_Node000001_Node000013" class="edge">
<title>Node1&#45;&gt;Node13</title>
<g id="a_edge13_Node000001_Node000013"><a xlink:title=" ">
<path fill="none" stroke="#63b8ff" d="M1567.35,-125.78C1474.27,-119.9 1296.51,-106.82 1146.5,-85 1136.32,-83.52 1125.38,-81.53 1115.25,-79.51"/>
<polygon fill="#63b8ff" stroke="#63b8ff" points="1567.25,-129.29 1577.45,-126.42 1567.69,-122.3 1567.25,-129.29"/>
</a>
</g>
</g>
<!-- Node14 -->
<g id="Node000014" class="node">
<title>Node14</title>
<g id="a_Node000014"><a xlink:href="debug_8c.html" target="_top" xlink:title=" ">
<polygon fill="white" stroke="#666666" points="1260,-79.5 1155,-79.5 1155,-60.5 1260,-60.5 1260,-79.5"/>
<text text-anchor="middle" x="1207.5" y="-67.5" font-family="Helvetica,sans-Serif" font-size="10.00">src/debug/debug.c</text>
</a>
</g>
</g>
<!-- Node1&#45;&gt;Node14 -->
<g id="edge14_Node000001_Node000014" class="edge">
<title>Node1&#45;&gt;Node14</title>
<g id="a_edge14_Node000001_Node000014"><a xlink:title=" ">
<path fill="none" stroke="#63b8ff" d="M1566.93,-123.53C1494.3,-116.35 1372.96,-102.99 1269.5,-85 1260.69,-83.47 1251.25,-81.5 1242.46,-79.54"/>
<polygon fill="#63b8ff" stroke="#63b8ff" points="1566.99,-127.05 1577.28,-124.54 1567.67,-120.08 1566.99,-127.05"/>
</a>
</g>
</g>
<!-- Node15 -->
<g id="Node000015" class="node">
<title>Node15</title>
<g id="a_Node000015"><a xlink:href="engine__stub_8c.html" target="_top" xlink:title=" ">
<polygon fill="white" stroke="#666666" points="1415,-79.5 1278,-79.5 1278,-60.5 1415,-60.5 1415,-79.5"/>
<text text-anchor="middle" x="1346.5" y="-67.5" font-family="Helvetica,sans-Serif" font-size="10.00">src/engine/engine_stub.c</text>
</a>
</g>
</g>
<!-- Node1&#45;&gt;Node15 -->
<g id="edge15_Node000001_Node000015" class="edge">
<title>Node1&#45;&gt;Node15</title>
<g id="a_edge15_Node000001_Node000015"><a xlink:title=" ">
<path fill="none" stroke="#63b8ff" d="M1580.17,-118.96C1525.15,-107.67 1438.88,-89.96 1387.99,-79.52"/>
<polygon fill="#63b8ff" stroke="#63b8ff" points="1579.56,-122.41 1590.06,-120.99 1580.97,-115.55 1579.56,-122.41"/>
</a>
</g>
</g>
<!-- Node16 -->
<g id="Node000016" class="node">
<title>Node16</title>
<g id="a_Node000016"><a xlink:href="menu__items_8c.html" target="_top" xlink:title=" ">
<polygon fill="white" stroke="#666666" points="1536,-79.5 1433,-79.5 1433,-60.5 1536,-60.5 1536,-79.5"/>
<text text-anchor="middle" x="1484.5" y="-67.5" font-family="Helvetica,sans-Serif" font-size="10.00">src/menu_items.c</text>
</a>
</g>
</g>
<!-- Node1&#45;&gt;Node16 -->
<g id="edge16_Node000001_Node000016" class="edge">
<title>Node1&#45;&gt;Node16</title>
<g id="a_edge16_Node000001_Node000016"><a xlink:title=" ">
<path fill="none" stroke="#63b8ff" d="M1600.67,-117.23C1572.26,-105.92 1530.84,-89.44 1505.9,-79.52"/>
<polygon fill="#63b8ff" stroke="#63b8ff" points="1599.54,-120.55 1610.12,-120.99 1602.13,-114.04 1599.54,-120.55"/>
</a>
</g>
</g>
<!-- Node17 -->
<g id="Node000017" class="node">
<title>Node17</title>
<g id="a_Node000017"><a xlink:href="networking_8c.html" target="_top" xlink:title=" ">
<polygon fill="white" stroke="#666666" points="1709,-79.5 1554,-79.5 1554,-60.5 1709,-60.5 1709,-79.5"/>
<text text-anchor="middle" x="1631.5" y="-67.5" font-family="Helvetica,sans-Serif" font-size="10.00">src/networking/networking.c</text>
</a>
</g>
</g>
<!-- Node1&#45;&gt;Node17 -->
<g id="edge17_Node000001_Node000017" class="edge">
<title>Node1&#45;&gt;Node17</title>
<g id="a_edge17_Node000001_Node000017"><a xlink:title=" ">
<path fill="none" stroke="#63b8ff" d="M1631.5,-110.66C1631.5,-100.24 1631.5,-87.8 1631.5,-79.67"/>
<polygon fill="#63b8ff" stroke="#63b8ff" points="1628,-110.87 1631.5,-120.87 1635,-110.87 1628,-110.87"/>
</a>
</g>
</g>
<!-- Node18 -->
<g id="Node000018" class="node">
<title>Node18</title>
<g id="a_Node000018"><a xlink:href="actors_8c.html" target="_top" xlink:title=" ">
<polygon fill="white" stroke="#666666" points="1832,-79.5 1727,-79.5 1727,-60.5 1832,-60.5 1832,-79.5"/>
<text text-anchor="middle" x="1779.5" y="-67.5" font-family="Helvetica,sans-Serif" font-size="10.00">src/racing/actors.c</text>
</a>
</g>
</g>
<!-- Node1&#45;&gt;Node18 -->
<g id="edge18_Node000001_Node000018" class="edge">
<title>Node1&#45;&gt;Node18</title>
<g id="a_edge18_Node000001_Node000018"><a xlink:title=" ">
<path fill="none" stroke="#63b8ff" d="M1662.54,-117.23C1691.14,-105.92 1732.84,-89.44 1757.95,-79.52"/>
<polygon fill="#63b8ff" stroke="#63b8ff" points="1661.03,-114.06 1653.02,-120.99 1663.61,-120.57 1661.03,-114.06"/>
</a>
</g>
</g>
<!-- Node19 -->
<g id="Node000019" class="node">
<title>Node19</title>
<g id="a_Node000019"><a xlink:href="collision_8c.html" target="_top" xlink:title=" ">
<polygon fill="white" stroke="#666666" points="1966.5,-79.5 1850.5,-79.5 1850.5,-60.5 1966.5,-60.5 1966.5,-79.5"/>
<text text-anchor="middle" x="1908.5" y="-67.5" font-family="Helvetica,sans-Serif" font-size="10.00">src/racing/collision.c</text>
</a>
</g>
</g>
<!-- Node1&#45;&gt;Node19 -->
<g id="edge19_Node000001_Node000019" class="edge">
<title>Node1&#45;&gt;Node19</title>
<g id="a_edge19_Node000001_Node000019"><a xlink:title=" ">
<path fill="none" stroke="#63b8ff" d="M1681.73,-118.89C1735.21,-107.6 1818.81,-89.94 1868.17,-79.52"/>
<polygon fill="#63b8ff" stroke="#63b8ff" points="1680.84,-115.5 1671.78,-120.99 1682.29,-122.35 1680.84,-115.5"/>
</a>
</g>
</g>
<!-- Node20 -->
<g id="Node000020" class="node">
<title>Node20</title>
<g id="a_Node000020"><a xlink:href="framebuffer__effects_8c.html" target="_top" xlink:title=" ">
<polygon fill="white" stroke="#666666" points="2110,-85 1985,-85 1985,-55 2110,-55 2110,-85"/>
<text text-anchor="start" x="1993" y="-73" font-family="Helvetica,sans-Serif" font-size="10.00">src/racing/framebuffer</text>
<text text-anchor="middle" x="2047.5" y="-62" font-family="Helvetica,sans-Serif" font-size="10.00">_effects.c</text>
</a>
</g>
</g>
<!-- Node1&#45;&gt;Node20 -->
<g id="edge20_Node000001_Node000020" class="edge">
<title>Node1&#45;&gt;Node20</title>
<g id="a_edge20_Node000001_Node000020"><a xlink:title=" ">
<path fill="none" stroke="#63b8ff" d="M1695.88,-122.41C1765.13,-114.49 1878.38,-100.71 1975.5,-85 1978.52,-84.51 1981.6,-83.99 1984.71,-83.45"/>
<polygon fill="#63b8ff" stroke="#63b8ff" points="1695.12,-118.97 1685.58,-123.58 1695.91,-125.93 1695.12,-118.97"/>
</a>
</g>
</g>
<!-- Node21 -->
<g id="Node000021" class="node">
<title>Node21</title>
<g id="a_Node000021"><a xlink:href="memory_8c.html" target="_top" xlink:title=" ">
<polygon fill="white" stroke="#666666" points="2243,-79.5 2128,-79.5 2128,-60.5 2243,-60.5 2243,-79.5"/>
<text text-anchor="middle" x="2185.5" y="-67.5" font-family="Helvetica,sans-Serif" font-size="10.00">src/racing/memory.c</text>
</a>
</g>
</g>
<!-- Node1&#45;&gt;Node21 -->
<g id="edge21_Node000001_Node000021" class="edge">
<title>Node1&#45;&gt;Node21</title>
<g id="a_edge21_Node000001_Node000021"><a xlink:title=" ">
<path fill="none" stroke="#63b8ff" d="M1695.71,-126.07C1789.3,-120.52 1968.49,-107.82 2119.5,-85 2129.11,-83.55 2139.43,-81.57 2148.98,-79.55"/>
<polygon fill="#63b8ff" stroke="#63b8ff" points="1695.33,-122.58 1685.55,-126.66 1695.74,-129.57 1695.33,-122.58"/>
</a>
</g>
</g>
<!-- Node22 -->
<g id="Node000022" class="node">
<title>Node22</title>
<g id="a_Node000022"><a xlink:href="skybox__and__splitscreen_8c.html" target="_top" xlink:title=" ">
<polygon fill="white" stroke="#666666" points="2386,-85 2261,-85 2261,-55 2386,-55 2386,-85"/>
<text text-anchor="start" x="2269" y="-73" font-family="Helvetica,sans-Serif" font-size="10.00">src/racing/skybox_and</text>
<text text-anchor="middle" x="2323.5" y="-62" font-family="Helvetica,sans-Serif" font-size="10.00">_splitscreen.c</text>
</a>
</g>
</g>
<!-- Node1&#45;&gt;Node22 -->
<g id="edge22_Node000001_Node000022" class="edge">
<title>Node1&#45;&gt;Node22</title>
<g id="a_edge22_Node000001_Node000022"><a xlink:title=" ">
<path fill="none" stroke="#63b8ff" d="M1695.93,-127.5C1809.03,-123.4 2050.43,-112.06 2252.5,-85 2255.24,-84.63 2258.03,-84.23 2260.85,-83.79"/>
<polygon fill="#63b8ff" stroke="#63b8ff" points="1695.59,-124.01 1685.72,-127.86 1695.84,-131 1695.59,-124.01"/>
</a>
</g>
</g>
<!-- Node23 -->
<g id="Node000023" class="node">
<title>Node23</title>
<g id="a_Node000023"><a xlink:href="stubs_8c.html" target="_top" xlink:title=" ">
<polygon fill="white" stroke="#666666" points="2472.5,-79.5 2404.5,-79.5 2404.5,-60.5 2472.5,-60.5 2472.5,-79.5"/>
<text text-anchor="middle" x="2438.5" y="-67.5" font-family="Helvetica,sans-Serif" font-size="10.00">src/stubs.c</text>
</a>
</g>
</g>
<!-- Node1&#45;&gt;Node23 -->
<g id="edge23_Node000001_Node000023" class="edge">
<title>Node1&#45;&gt;Node23</title>
<g id="a_edge23_Node000001_Node000023"><a xlink:title=" ">
<path fill="none" stroke="#63b8ff" d="M1695.59,-127.88C1854.22,-123.53 2262,-110.19 2395.5,-85 2402.29,-83.72 2409.49,-81.66 2416.02,-79.52"/>
<polygon fill="#63b8ff" stroke="#63b8ff" points="1695.4,-124.38 1685.5,-128.15 1695.59,-131.38 1695.4,-124.38"/>
</a>
</g>
</g>
<!-- Node24 -->
<g id="Node000024" class="node">
<title>Node24</title>
<g id="a_Node000024"><a xlink:href="update__objects_8c.html" target="_top" xlink:title=" ">
<polygon fill="white" stroke="#666666" points="2606.5,-79.5 2490.5,-79.5 2490.5,-60.5 2606.5,-60.5 2606.5,-79.5"/>
<text text-anchor="middle" x="2548.5" y="-67.5" font-family="Helvetica,sans-Serif" font-size="10.00">src/update_objects.c</text>
</a>
</g>
</g>
<!-- Node1&#45;&gt;Node24 -->
<g id="edge24_Node000001_Node000024" class="edge">
<title>Node1&#45;&gt;Node24</title>
<g id="a_edge24_Node000001_Node000024"><a xlink:title=" ">
<path fill="none" stroke="#63b8ff" d="M1696.26,-129.49C1838.81,-128.74 2190.21,-122.83 2481.5,-85 2491.75,-83.67 2502.77,-81.63 2512.86,-79.51"/>
<polygon fill="#63b8ff" stroke="#63b8ff" points="1695.94,-126 1685.96,-129.54 1695.97,-133 1695.94,-126"/>
</a>
</g>
</g>
<!-- Node3 -->
<g id="Node000003" class="node">
<title>Node3</title>
<g id="a_Node000003"><a xlink:href="audio_2effects_8c.html" target="_top" xlink:title=" ">
<polygon fill="white" stroke="#666666" points="105,-19 0,-19 0,0 105,0 105,-19"/>
<text text-anchor="middle" x="52.5" y="-7" font-family="Helvetica,sans-Serif" font-size="10.00">src/audio/effects.c</text>
</a>
</g>
</g>
<!-- Node2&#45;&gt;Node3 -->
<g id="edge2_Node000002_Node000003" class="edge">
<title>Node2&#45;&gt;Node3</title>
<g id="a_edge2_Node000002_Node000003"><a xlink:title=" ">
<path fill="none" stroke="#63b8ff" d="M546.32,-63.85C454.81,-55.46 269.84,-37.86 113.5,-19 110.74,-18.67 107.91,-18.31 105.06,-17.95"/>
<polygon fill="#63b8ff" stroke="#63b8ff" points="546.2,-67.36 556.48,-64.78 546.84,-60.39 546.2,-67.36"/>
</a>
</g>
</g>
<!-- Node4 -->
<g id="Node000004" class="node">
<title>Node4</title>
<g id="a_Node000004"><a xlink:href="external_8c.html" target="_top" xlink:title=" ">
<polygon fill="white" stroke="#666666" points="236,-19 123,-19 123,0 236,0 236,-19"/>
<text text-anchor="middle" x="179.5" y="-7" font-family="Helvetica,sans-Serif" font-size="10.00">src/audio/external.c</text>
</a>
</g>
</g>
<!-- Node2&#45;&gt;Node4 -->
<g id="edge3_Node000002_Node000004" class="edge">
<title>Node2&#45;&gt;Node4</title>
<g id="a_edge3_Node000002_Node000004"><a xlink:title=" ">
<path fill="none" stroke="#63b8ff" d="M546.05,-61.07C464.8,-49.86 317.25,-29.51 236.34,-18.34"/>
<polygon fill="#63b8ff" stroke="#63b8ff" points="545.71,-64.56 556.1,-62.46 546.67,-57.63 545.71,-64.56"/>
</a>
</g>
</g>
<!-- Node5 -->
<g id="Node000005" class="node">
<title>Node5</title>
<g id="a_Node000005"><a xlink:href="heap_8c.html" target="_top" xlink:title=" ">
<polygon fill="white" stroke="#666666" points="350.5,-19 254.5,-19 254.5,0 350.5,0 350.5,-19"/>
<text text-anchor="middle" x="302.5" y="-7" font-family="Helvetica,sans-Serif" font-size="10.00">src/audio/heap.c</text>
</a>
</g>
</g>
<!-- Node2&#45;&gt;Node5 -->
<g id="edge4_Node000002_Node000005" class="edge">
<title>Node2&#45;&gt;Node5</title>
<g id="a_edge4_Node000002_Node000005"><a xlink:title=" ">
<path fill="none" stroke="#63b8ff" d="M549.64,-58.53C491.56,-47.24 400.18,-29.48 346.32,-19.02"/>
<polygon fill="#63b8ff" stroke="#63b8ff" points="549.25,-62.02 559.73,-60.49 550.58,-55.15 549.25,-62.02"/>
</a>
</g>
</g>
<!-- Node6 -->
<g id="Node000006" class="node">
<title>Node6</title>
<g id="a_Node000006"><a xlink:href="load_8c.html" target="_top" xlink:title=" ">
<polygon fill="white" stroke="#666666" points="462,-19 369,-19 369,0 462,0 462,-19"/>
<text text-anchor="middle" x="415.5" y="-7" font-family="Helvetica,sans-Serif" font-size="10.00">src/audio/load.c</text>
</a>
</g>
</g>
<!-- Node2&#45;&gt;Node6 -->
<g id="edge5_Node000002_Node000006" class="edge">
<title>Node2&#45;&gt;Node6</title>
<g id="a_edge5_Node000002_Node000006"><a xlink:title=" ">
<path fill="none" stroke="#63b8ff" d="M566.42,-57.46C530.06,-46.15 475.47,-29.16 442.87,-19.02"/>
<polygon fill="#63b8ff" stroke="#63b8ff" points="565.57,-60.86 576.16,-60.49 567.65,-54.18 565.57,-60.86"/>
</a>
</g>
</g>
<!-- Node7 -->
<g id="Node000007" class="node">
<title>Node7</title>
<g id="a_Node000007"><a xlink:href="playback_8c.html" target="_top" xlink:title=" ">
<polygon fill="white" stroke="#666666" points="596.5,-19 480.5,-19 480.5,0 596.5,0 596.5,-19"/>
<text text-anchor="middle" x="538.5" y="-7" font-family="Helvetica,sans-Serif" font-size="10.00">src/audio/playback.c</text>
</a>
</g>
</g>
<!-- Node2&#45;&gt;Node7 -->
<g id="edge6_Node000002_Node000007" class="edge">
<title>Node2&#45;&gt;Node7</title>
<g id="a_edge6_Node000002_Node000007"><a xlink:title=" ">
<path fill="none" stroke="#63b8ff" d="M586.18,-53.41C573.99,-42.44 558.13,-28.17 548.13,-19.17"/>
<polygon fill="#63b8ff" stroke="#63b8ff" points="584.13,-56.28 593.91,-60.37 588.82,-51.08 584.13,-56.28"/>
</a>
</g>
</g>
<!-- Node8 -->
<g id="Node000008" class="node">
<title>Node8</title>
<g id="a_Node000008"><a xlink:href="port__eu_8c.html" target="_top" xlink:title=" ">
<polygon fill="white" stroke="#666666" points="724,-19 615,-19 615,0 724,0 724,-19"/>
<text text-anchor="middle" x="669.5" y="-7" font-family="Helvetica,sans-Serif" font-size="10.00">src/audio/port_eu.c</text>
</a>
</g>
</g>
<!-- Node2&#45;&gt;Node8 -->
<g id="edge7_Node000002_Node000008" class="edge">
<title>Node2&#45;&gt;Node8</title>
<g id="a_edge7_Node000002_Node000008"><a xlink:title=" ">
<path fill="none" stroke="#63b8ff" d="M620.74,-53.72C633.16,-42.71 649.47,-28.25 659.72,-19.17"/>
<polygon fill="#63b8ff" stroke="#63b8ff" points="618.4,-51.12 613.24,-60.37 623.04,-56.35 618.4,-51.12"/>
</a>
</g>
</g>
<!-- Node2&#45;&gt;Node9 -->
<g id="edge8_Node000002_Node000009" class="edge">
<title>Node2&#45;&gt;Node9</title>
<g id="a_edge8_Node000002_Node000009"><a xlink:title=" ">
<path fill="none" stroke="#63b8ff" d="M660.59,-61.74C748.15,-50.6 914.81,-29.41 1003.88,-18.08"/>
<polygon fill="#63b8ff" stroke="#63b8ff" points="660.04,-58.28 650.57,-63.01 660.93,-65.22 660.04,-58.28"/>
</a>
</g>
</g>
<!-- Node10 -->
<g id="Node000010" class="node">
<title>Node10</title>
<g id="a_Node000010"><a xlink:href="synthesis_8c.html" target="_top" xlink:title=" ">
<polygon fill="white" stroke="#666666" points="861,-19 742,-19 742,0 861,0 861,-19"/>
<text text-anchor="middle" x="801.5" y="-7" font-family="Helvetica,sans-Serif" font-size="10.00">src/audio/synthesis.c</text>
</a>
</g>
</g>
<!-- Node2&#45;&gt;Node10 -->
<g id="edge9_Node000002_Node000010" class="edge">
<title>Node2&#45;&gt;Node10</title>
<g id="a_edge9_Node000002_Node000010"><a xlink:title=" ">
<path fill="none" stroke="#63b8ff" d="M642.06,-57.61C680.35,-46.29 738.2,-29.2 772.67,-19.02"/>
<polygon fill="#63b8ff" stroke="#63b8ff" points="640.89,-54.3 632.29,-60.49 642.87,-61.02 640.89,-54.3"/>
</a>
</g>
</g>
<!-- Node11 -->
<g id="Node000011" class="node">
<title>Node11</title>
<g id="a_Node000011"><a xlink:href="Game_8cpp.html" target="_top" xlink:title=" ">
<polygon fill="white" stroke="#666666" points="985.5,-19 879.5,-19 879.5,0 985.5,0 985.5,-19"/>
<text text-anchor="middle" x="932.5" y="-7" font-family="Helvetica,sans-Serif" font-size="10.00">src/port/Game.cpp</text>
</a>
</g>
</g>
<!-- Node2&#45;&gt;Node11 -->
<g id="edge10_Node000002_Node000011" class="edge">
<title>Node2&#45;&gt;Node11</title>
<g id="a_edge10_Node000002_Node000011"><a xlink:title=" ">
<path fill="none" stroke="#63b8ff" d="M660.87,-58.8C724.29,-47.52 825.32,-29.56 884.65,-19.01"/>
<polygon fill="#63b8ff" stroke="#63b8ff" points="659.87,-55.42 650.64,-60.62 661.1,-62.31 659.87,-55.42"/>
</a>
</g>
</g>
</g>
</svg>
